<?xml version="1.0" standalone="no"?>
<!DOCTYPE svg PUBLIC "-//W3C//DTD SVG 20010904//EN"
 "http://www.w3.org/TR/2001/REC-SVG-20010904/DTD/svg10.dtd">
<svg version="1.0" xmlns="http://www.w3.org/2000/svg"
 width="512.000000pt" height="512.000000pt" viewBox="0 0 512.000000 512.000000"
 preserveAspectRatio="xMidYMid meet">
<metadata>
Created by potrace 1.14, written by Peter Selinger 2001-2017
</metadata>
<g transform="translate(0.000000,512.000000) scale(0.100000,-0.100000)"
fill="#000000" stroke="none">
<path d="M355 5100 c-74 -24 -99 -36 -150 -74 -89 -67 -151 -153 -183 -256
-21 -65 -21 -79 -21 -2210 l0 -2145 25 -74 c52 -155 160 -263 315 -315 l74
-25 2145 0 2145 0 74 25 c124 42 221 122 279 232 67 126 62 -56 62 2302 0
2361 5 2175 -63 2304 -63 119 -203 221 -336 246 -35 7 -798 10 -2180 9 -2064
0 -2128 -1 -2186 -19z"/>
</g>
</svg>
