<svg xmlns="http://www.w3.org/2000/svg" xmlns:xlink="http://www.w3.org/1999/xlink" viewBox="0 0 820 236.11">
  <defs>
    <style>.cls-1{fill:url(#New_Gradient_Swatch);}.cls-2{fill:url(#New_Gradient_Swatch-2);}.cls-3{fill:url(#New_Gradient_Swatch-3);}.cls-4{fill:url(#New_Gradient_Swatch-4);}.cls-5{fill:url(#New_Gradient_Swatch-5);}</style>
    <linearGradient id="New_Gradient_Swatch" x1="89.29" y1="233" x2="89.29" y2="10" gradientUnits="userSpaceOnUse">
      <stop offset="0" stop-color="#099268" />
      <stop offset="1" stop-color="#38d9a9" />
    </linearGradient>
    <linearGradient id="New_Gradient_Swatch-2" x1="343.83" y1="234" x2="343.83" xlink:href="#New_Gradient_Swatch" />
    <linearGradient id="New_Gradient_Swatch-3" x1="464.83" y1="234" x2="464.83" y2="0" xlink:href="#New_Gradient_Swatch" />
    <linearGradient id="New_Gradient_Swatch-4" x1="579.83" y1="236.11" x2="579.83" y2="66" xlink:href="#New_Gradient_Swatch" />
    <linearGradient id="New_Gradient_Swatch-5" x1="744.66" x2="744.66" y2="67" xlink:href="#New_Gradient_Swatch" />
  </defs>
  <g id="letters" data-name="Layer 2">
    <g id="letter-1" data-name="Layer 1">
      <path class="cls-1" d="M0,76.92a64.29,64.29,0,0,1,5.29-26A68.07,68.07,0,0,1,40.93,15.29a64.46,64.46,0,0,1,26-5.29H169.33V54H66.16a22.22,22.22,0,0,0-15.92,6.51,22.22,22.22,0,0,0-6.5,15.91,22.86,22.86,0,0,0,1.72,8.86,22,22,0,0,0,4.78,7.21A22.22,22.22,0,0,0,66.16,99h45.42a65.8,65.8,0,0,1,26.1,5.22,66.6,66.6,0,0,1,35.68,35.68,67.66,67.66,0,0,1,0,52.12A67.53,67.53,0,0,1,159,213.29a68.21,68.21,0,0,1-21.35,14.41,64.83,64.83,0,0,1-26.1,5.3H12.33V189H112.56a22.61,22.61,0,0,0,20.76-31.31,22.23,22.23,0,0,0-4.79-7.16,22.33,22.33,0,0,0-16-6.53H66.92a64.29,64.29,0,0,1-26-5.29A67.85,67.85,0,0,1,5.29,103,64.81,64.81,0,0,1,0,76.92Z" />
    </g>
    <g id="letter-2">
      <path class="cls-2" d="M299.33,234h-45V10h89.58a87.5,87.5,0,0,1,23.72,3.2,89.09,89.09,0,0,1,21.3,9.05,90.3,90.3,0,0,1,41.2,53.61,89.43,89.43,0,0,1-3.82,58.44A89.89,89.89,0,0,1,378.63,182a86.88,86.88,0,0,1-34.72,7H299.33Zm0-180v90h45a43.34,43.34,0,0,0,17.4-3.53,45.08,45.08,0,0,0,23.91-24,45,45,0,0,0,0-35,45.08,45.08,0,0,0-23.91-24A43.34,43.34,0,0,0,344.33,54Z" />
    </g>
    <g id="letter-3">
      <path class="cls-3" d="M486.33,234h-43V0h43Z" />
    </g>
    <g id="letter-4">
      <path class="cls-4" d="M630,213.51a113.47,113.47,0,0,1-11,8.81,82.94,82.94,0,0,1-12.22,7.17,76.16,76.16,0,0,1-11.63,4.42,57.8,57.8,0,0,1-17.4,2.18A76.2,76.2,0,0,1,551,230.66a70.35,70.35,0,0,1-39.78-40,85.42,85.42,0,0,1-5.84-32.36V66h42v92.35a41.5,41.5,0,0,0,2.56,15.06,33,33,0,0,0,6.91,11.15A28.83,28.83,0,0,0,567,191.43a33.21,33.21,0,0,0,12.5,2.34,26.39,26.39,0,0,0,12.35-3,34.64,34.64,0,0,0,10.18-8,38.66,38.66,0,0,0,6.83-11.31,35.21,35.21,0,0,0,2.49-13V66h43V233H644.05Z" />
    </g>
    <g id="letter-5">
      <path class="cls-5" d="M766.86,233H669.33V191H767a10.69,10.69,0,0,0,10.64-10.64q0-4.55-3.13-6A18.2,18.2,0,0,0,767,173H723.38a51.14,51.14,0,0,1-20.67-4.2,53.1,53.1,0,0,1-16.79-11.42,53.85,53.85,0,0,1-11.27-16.86,53.94,53.94,0,0,1,0-41.35,52.41,52.41,0,0,1,28.06-28A51.93,51.93,0,0,1,723.38,67h86v42H725.18a10.38,10.38,0,0,0-10.35,10.35,10.38,10.38,0,0,0,3,7.53,9.86,9.86,0,0,0,7.31,3.12h41.68a57.91,57.91,0,0,1,20.63,3.67,52.09,52.09,0,0,1,16.88,10.24,48.13,48.13,0,0,1,15.63,36,51,51,0,0,1-4.22,20.71,55.51,55.51,0,0,1-11.41,16.88,52.55,52.55,0,0,1-16.88,11.41A52,52,0,0,1,766.86,233Z" />
    </g>
  </g>
</svg>